<svg xmlns="http://www.w3.org/2000/svg" viewBox="0 0 411 250" width="411" height="250" style="width:100%;height:100%;transform:translate3d(0,0,0)"><defs><clipPath id="b"><path d="M0 0h411v250H0z"/></clipPath><clipPath id="c"><path d="M0 0h1423v912H0z"/></clipPath><clipPath id="d"><path d="M0 0h1423v912H0z"/></clipPath><clipPath id="i"><path d="M0 0h1423v912H0z"/></clipPath><linearGradient id="e" gradientUnits="userSpaceOnUse" y1="-139" x2="-1.44" y2="88.675"><stop offset="0%" stop-color="#C1EFF4"/><stop offset="59%" stop-color="#E0F7F9"/><stop offset="100%" stop-color="#FFF"/></linearGradient><mask id="f"><path fill="url(#a)" d="M231.07 71.907L189.768-30.139l-66.976-42.419-45.211 25.116-86.935-16.336-67.11 29.732-70.068-1.188-47.7 22.955-36.838 84.837 462.14-.651z"/></mask><linearGradient id="a" gradientUnits="userSpaceOnUse" y1="-139" x2="-1.44" y2="88.675"><stop stop-color="#FFF" offset="0%"/><stop stop-color="#FFF" offset="16%"/><stop stop-color="#FFF" offset="38%"/><stop stop-color="#FFF" offset="59%" stop-opacity=".5"/><stop stop-color="#FFF" offset="100%" stop-opacity="0"/></linearGradient><clipPath id="g"><path d="M0 0h1423v912H0z"/></clipPath><linearGradient id="h" gradientUnits="userSpaceOnUse" x1="4.609" y1="-49.207" x2="5.831" y2="35.679"><stop offset="0%" stop-color="#C1EFF4"/><stop offset="59%" stop-color="#E0F7F9"/><stop offset="100%" stop-color="#FFF"/></linearGradient></defs><g clip-path="url(#b)"><g clip-path="url(#c)" transform="matrix(.4 0 0 .4 -64.6 -95.4)" display="block"><g clip-path="url(#d)" display="block"><path fill="url(#e)" mask="url(#f)" d="M231.07 71.907L189.768-30.139l-66.976-42.419-45.211 25.116-86.935-16.336-67.11 29.732-70.068-1.188-47.7 22.955-36.838 84.837 462.14-.651z" transform="translate(828.648 728.517)" display="block"/><g display="block"><path fill="#B2EBF2" d="M694.696 793.645a1.5 1.5 0 0 1-1.018-2.601l34.797-32.138 71.056-3.999 43.122 19.124a1.5 1.5 0 1 1-1.217 2.742l-42.46-18.831-69.257 3.898-34.005 31.407a1.499 1.499 0 0 1-1.018.398zM627.719 811.506a1.502 1.502 0 0 1-1.408-2.021l24.904-67.357 41.685-1.688 28.603-30.804a1.5 1.5 0 1 1 2.198 2.042l-29.443 31.708-40.922 1.659-24.211 65.482a1.5 1.5 0 0 1-1.406.979zM1001.672 792.529a1.5 1.5 0 0 1-1.449-1.116l-15.497-58.668-33.082-25.363a1.5 1.5 0 1 1 1.826-2.381l33.894 25.987 15.759 59.658a1.5 1.5 0 0 1-1.451 1.883z"/></g><g display="block"><path fill="#26C6DA" d="M854.383 620.762c-12.45-11.704-27.999-25.752-40.294-35.043-8.195-6.192-14.945-10.271-18.369-10.131-8.132.332-20.013 4.808-30.725 9.674-7.301 3.316-14.059 6.814-18.716 9.302-9.632 5.148-22.838 15.628-29.536 28.466-6.23 11.941-16.568 31.6-16.568 31.6-.113.361-.242.715-.38 1.064a16.353 16.353 0 0 1-13.972 10.329l-6.111.529a13.347 13.347 0 0 0-10.133 6.168l-.86 1.364a13.343 13.343 0 0 0 11.13 20.468l75.127.85 7.754-28.112 1.127-4.08.261-.954 2.765-10.017 24.066-2.317 85.142-8.195s-9.32-9.321-21.708-20.965z"/><path fill="#8BE5EE" d="M764.995 585.262l36.863-3.535 12.231 3.992M750.019 674.486c-6.186-1.578-8.382-8.404-8.309-14.213-2.269 5.848-6.931 10.749-12.911 10.097-5.979-.654-10.769-7.176-9.134-12.964-3.021 4.491-8.124 8.724-13.325 7.224-3.127-.903-5.413-3.8-6.219-6.954-.153-.596-.251-1.275-.326-1.982a16.353 16.353 0 0 1-13.973 10.329l-6.11.529a13.348 13.348 0 0 0-10.133 6.168l-.862 1.365a13.343 13.343 0 1 0 11.131 20.467l75.127.85 7.755-28.111c-2.274 4.677-7.552 8.511-12.711 7.195zM763.856 663.21l.262-.954-.23.106c.01.281-.013.565-.032.848z"/><path fill="#26C6DA" d="M814.09 585.719l-12.231-3.991-36.865 3.535c-7.301 3.316-14.058 6.813-18.716 9.301-9.631 5.148-22.836 15.628-29.534 28.466-6.23 11.941-16.568 31.6-16.568 31.6-.113.361-.242.715-.38 1.064.074.707.172 1.385.324 1.982.807 3.153 3.094 6.051 6.221 6.953 5.201 1.5 10.303-2.732 13.323-7.223-1.635 5.788 3.157 12.311 9.137 12.964 5.979.653 10.641-4.25 12.91-10.097-.073 5.808 2.123 12.634 8.309 14.213 5.159 1.316 10.436-2.518 12.711-7.196l1.125-4.08c.018-.283.042-.567.032-.847l.231-.106 2.763-10.017 24.068-2.318 63.432-29.16c-12.45-11.704-27.997-25.752-40.292-35.043z"/><path fill="#47DAEA" d="M719.388 648.379a2.002 2.002 0 0 1-1.854-2.753l7.174-17.675a2 2 0 0 1 3.707 1.504l-7.174 17.675a2 2 0 0 1-1.853 1.249zM741.579 640.458a2 2 0 0 1-1.848-2.764l7.443-18.019a1.999 1.999 0 1 1 3.697 1.528l-7.442 18.018a2.002 2.002 0 0 1-1.85 1.237zM750.448 658.704a2.001 2.001 0 0 1-1.828-2.81l7.563-17.115a2 2 0 0 1 3.659 1.617l-7.564 17.116a2 2 0 0 1-1.83 1.192z"/><path fill="#1BC1DC" d="M692.138 695.414c-4.267 0-12.703-2.582-14.095-12.357-1.405-9.873 7.086-14.422 11.773-15.448a2.038 2.038 0 0 1 2.417 1.551 2.03 2.03 0 0 1-1.55 2.417c-.397.089-9.843 2.316-8.62 10.906 1.248 8.77 9.716 8.871 10.075 8.871a2.03 2.03 0 0 1 0 4.06zM712.232 695.414c-4.267 0-12.703-2.582-14.095-12.357-1.405-9.873 7.086-14.422 11.773-15.448a2.038 2.038 0 0 1 2.417 1.551 2.03 2.03 0 0 1-1.55 2.417c-.397.089-9.843 2.316-8.62 10.906 1.237 8.695 9.722 8.869 10.084 8.871 1.117.01 2.021.92 2.016 2.039a2.026 2.026 0 0 1-2.025 2.021z"/></g><g display="block"><path fill="#26C6DA" d="M805.93 552.252c-3.005-5.26-12.474-8.471-22.24-7.412-7.985.866-19.67 5.13-30.12 10.356-5.648 2.824-18.906 9.22-28.829 14.71-11.06 6.12-19.663 23.13-9.176 29.888 26.475 17.06 66.044-14.453 79.306-23.774 8.707-6.119 15.767-15.532 11.06-23.768z"/><path fill="#47DAEA" d="M766.746 562.801a2 2 0 0 1-.966-3.732l14.097-8.127a1.998 1.998 0 0 1 2.731.733c.551.956.225 2.18-.733 2.731l-14.097 8.127c-.325.189-.68.274-1.032.268z"/><path fill="#0097A7" d="M734.238 606.519a37.266 37.266 0 0 1-3.794-.262 1.501 1.501 0 0 1 .358-2.979c4.801.575 9.424.14 13.733-1.296 13.489-4.498 23.137-11.58 23.233-11.652a1.5 1.5 0 1 1 1.786 2.41c-.405.302-10.105 7.432-24.07 12.088-3.58 1.194-7.35 1.759-11.246 1.69z"/></g><g display="block"><path fill="#26C6DA" d="M927.116 681.385c26.833-10.247 38.713-51.484 27.395-78.599-9.04-21.659-46.429-39.887-75.103-49.07-28.674-9.185-56-17.657-80.748-1.847-17.278 11.038-39.314 46.126-30.555 71.477 9.588 27.75 36.822 49.207 59.305 56.299 27.603 8.705 73.217 11.855 99.706 1.74z"/><path fill="#0097A7" d="M784.401 649.134a1.502 1.502 0 0 1-.626-.15c-8.601-4.152-15.272-14.398-17.849-27.406-5.607-28.315 14.42-55.936 29.25-67.593a1.5 1.5 0 0 1 1.854 2.359c-14.248 11.2-33.507 37.66-28.162 64.65 1.848 9.335 7.079 20.879 16.212 25.289a1.5 1.5 0 0 1-.679 2.85z"/><path fill="#47DAEA" d="M805.552 577.992a1.998 1.998 0 0 1-1.635-3.097l6.881-10.486a2 2 0 0 1 3.345 2.195l-6.882 10.486a1.998 1.998 0 0 1-1.709.902zM824.743 597.865a2 2 0 0 1-1.737-2.925l6.93-13.276a2.002 2.002 0 0 1 2.699-.849 2.002 2.002 0 0 1 .847 2.7l-6.93 13.276a1.998 1.998 0 0 1-1.809 1.074zM848.128 607.926a2 2 0 0 1-1.74-2.92l7.968-15.375a2.001 2.001 0 0 1 3.552 1.84l-7.967 15.375a2.003 2.003 0 0 1-1.813 1.08zM880.338 611a2 2 0 0 1-1.832-2.721l4.677-12.084a2 2 0 0 1 3.732 1.444l-4.677 12.083a2.002 2.002 0 0 1-1.9 1.278z"/></g><g display="block"><path fill="#26C6DA" d="M940.161 630.648a33.768 33.768 0 0 0-6.148-7.915 33.623 33.623 0 0 0-11.341-7.135 33.523 33.523 0 0 0-12.023-2.142l-15.581.085-76.219 9.458h-.002l-.245.03s-5.647.796-13.219 2.627l-.325.079-.805.199-.365.091c-.291.073-.583.148-.878.225-.092.023-.182.045-.275.07-.386.1-.774.203-1.167.308l-.229.062c-.315.085-.631.172-.949.26l-.387.108c-.286.08-.573.161-.862.244l-.367.106c-.371.107-.743.217-1.117.329l-.102.03a89.43 89.43 0 0 0-1.224.374l-.351.11a90.98 90.98 0 0 0-1.308.418 98.757 98.757 0 0 0-1.245.413c-.414.139-.828.281-1.242.426l-.218.078c-.34.121-.681.243-1.022.367l-.395.145c-.294.109-.587.218-.88.329l-.388.148c-.352.135-.704.273-1.055.413l-.178.071c-.407.163-.811.329-1.213.497l-.336.144a86.68 86.68 0 0 0-.882.379l-.396.174c-.294.13-.587.263-.878.397l-.321.147a70.43 70.43 0 0 0-1.174.558l-.153.076a65.267 65.267 0 0 0-1.35.684 42.34 42.34 0 0 0-.793.421l-.362.196c-.297.162-.59.327-.881.494-.071.042-.144.082-.216.124-.358.207-.709.418-1.057.631l-.269.168a47.797 47.797 0 0 0-1.102.71c-.24.16-.477.321-.71.484-.098.068-.196.135-.292.203-.322.228-.639.458-.947.693l-.077.06c-.282.215-.558.434-.83.655l-.27.225a31.344 31.344 0 0 0-1.519 1.36c-.058.057-.121.113-.178.171-.26.255-.511.513-.755.775l-.174.193a21.531 21.531 0 0 0-1.213 1.463c-.063.084-.129.169-.19.254-.203.278-.398.559-.581.843-2.107 3.277-4.98 11.188-8.032 20.907-.508 1.62-1.022 3.29-1.538 4.998a627.198 627.198 0 0 0-1.552 5.22 948.99 948.99 0 0 0-5.297 18.891 1548.543 1548.543 0 0 0-5.634 21.473c-.009.035-.022.068-.03.104-.1.38-.213.755-.336 1.125-.133.391-.279.777-.435 1.157a17.72 17.72 0 0 1-14.91 10.899l-4.244.903a15.207 15.207 0 0 0-9.263 23.644l.305.431a15.204 15.204 0 0 0 11.135 6.383l71.086-4.507a12.647 12.647 0 0 0 10.375-10.929l10.834-58.839h72.788a33.6 33.6 0 0 0 10.44-1.663l11.1-3.629 5.549-1.814a33.601 33.601 0 0 0 23.105-30.02 33.41 33.41 0 0 0-4.215-18.324z"/><path fill="#8BE5EE" d="M818.603 623.029s-39.627 5.582-49.674 21.21c-5.618 8.739-16.684 50.43-22.053 71.488a17.724 17.724 0 0 1-15.711 13.285l-4.244.904a15.205 15.205 0 0 0-9.261 23.643l.303.431a15.204 15.204 0 0 0 11.135 6.383l71.087-4.506a12.653 12.653 0 0 0 10.376-10.929l10.833-58.84h72.787c3.546 0 7.069-.56 10.441-1.662l16.65-5.443a33.6 33.6 0 0 0 23.104-30.02c1.106-19.351-14.345-35.623-33.727-35.517l-15.58.086-76.466 9.487z"/><path fill="#1BC1DC" d="M740.713 759.745c-4.267 0-12.703-2.583-14.095-12.358-1.405-9.872 7.086-14.421 11.773-15.447a2.03 2.03 0 0 1 .867 3.965c-.397.09-9.843 2.32-8.62 10.909 1.237 8.696 9.722 8.869 10.084 8.871 1.117.01 2.021.92 2.016 2.039a2.026 2.026 0 0 1-2.025 2.021zM760.807 758.628c-4.267 0-12.704-2.582-14.096-12.357-1.404-9.872 7.087-14.42 11.774-15.446a2.029 2.029 0 1 1 .867 3.965c-.397.09-9.842 2.317-8.62 10.907 1.237 8.695 9.721 8.869 10.083 8.871 1.117.01 2.021.92 2.016 2.039a2.025 2.025 0 0 1-2.024 2.021z"/><path fill="#26C6DA" d="M910.649 613.456l-15.581.085-76.219 9.458-12.386 2.399c-12.52 2.94-31.097 8.829-37.534 18.84-5.618 8.739-16.685 50.431-22.052 71.489a17.905 17.905 0 0 1-.805 2.398c.307 1.812.864 3.518 1.792 4.952 2.611 4.036 7.194 6.652 12.083 5.615 4.888-1.036 10.408-6.137 11.223-11.067-.052 7.431-.007 13.097 7.365 14.207 10.015 1.509 12.368-9.56 13.789-12.613.257 3.155.529 6.367 1.721 9.299 1.193 2.931 3.931 5.464 6.98 6.313 3.885 1.08 8.658-.854 11.191-3.99.552-.684.977-1.415 1.34-2.173l7.838-42.569h72.787c3.546 0 7.07-.562 10.441-1.664l16.65-5.443a33.602 33.602 0 0 0 23.105-30.019c1.105-19.352-14.346-35.622-33.728-35.517z"/><path fill="#47DAEA" d="M799.109 716.516a1.997 1.997 0 0 1-1.945-2.471l4.186-17.256a2 2 0 0 1 3.887.944l-4.187 17.256a1.998 1.998 0 0 1-1.941 1.527zM785.714 696.702a1.997 1.997 0 0 1-1.945-2.472l4.186-17.256a2 2 0 0 1 3.887.944l-4.187 17.256a1.998 1.998 0 0 1-1.941 1.528zM782.531 663.112a2 2 0 0 1-1.956-2.425l1.135-5.222a13.366 13.366 0 0 1 6.82-8.994l4.394-2.326a2 2 0 0 1 1.871 3.535l-4.394 2.327a9.377 9.377 0 0 0-4.783 6.307l-1.135 5.223a2 2 0 0 1-1.952 1.575zM762.83 714.283a1.997 1.997 0 0 1-1.945-2.472l4.186-17.255a2 2 0 0 1 3.887.944l-4.187 17.255a1.998 1.998 0 0 1-1.941 1.528zM828.408 677.725a2 2 0 0 1-.085-3.998l19.256-.837c1.094-.033 2.037.808 2.085 1.911a2 2 0 0 1-1.911 2.085l-19.256.837-.089.002zM810.124 667.44a2 2 0 0 1-1.479-3.344l2.407-2.651c2.816-3.101 6.666-5 10.841-5.348l3.242-.27a1.993 1.993 0 0 1 2.159 1.827 2 2 0 0 1-1.826 2.159l-3.242.271a12.453 12.453 0 0 0-8.213 4.05l-2.409 2.652a1.99 1.99 0 0 1-1.48.654zM907.976 662.138a2 2 0 0 1-.3-3.976l19.051-2.921a2 2 0 1 1 .605 3.953l-19.05 2.922a2.11 2.11 0 0 1-.306.022zM886.767 678.557a2 2 0 0 1-.301-3.976l19.051-2.922a2 2 0 1 1 .607 3.953l-19.05 2.923a2.134 2.134 0 0 1-.307.022z"/><path fill="#0097A7" d="M752.744 696.9a1.501 1.501 0 0 1-1.436-1.937c.782-2.558 1.572-5.179 2.369-7.822 5.509-18.273 11.207-37.169 16.831-44.901 5.458-7.506 15.215-13.274 29.001-17.143 10.162-2.852 18.623-3.536 18.978-3.563.813-.076 1.546.553 1.61 1.378a1.498 1.498 0 0 1-1.376 1.612c-.336.026-33.673 2.823-45.788 19.48-5.324 7.322-10.947 25.969-16.383 44.002-.798 2.648-1.59 5.272-2.372 7.833a1.5 1.5 0 0 1-1.434 1.061z"/></g><path fill="#8BE5EE" d="M724.714 538.594c.642-3.175 1.652-12.119 7.223-11.746 5.766.386 5.381 6.153 5.408 8.944.028 2.791-1.44 8.7-1.44 8.7l-12.146 1.977s.313-4.7.955-7.875z" display="block"/><g clip-path="url(#g)" transform="translate(0 5)" display="block"><path fill="#8BE5EE" d="M425.611 786.686c-66.741 0-121.652 11.53-128.42 26.32 21.872 13.261 71.09 22.506 128.309 22.506 57.369 0 106.693-9.294 128.479-22.611-6.98-14.739-61.785-26.215-128.368-26.215z" display="block"/><path fill="url(#h)" d="M130.833-2.533a50.379 50.379 0 0 0-3-1.917c-7.826-4.641-19.015-8.778-32.722-12.189-.988-.246-1.986-.49-3-.728a264.494 264.494 0 0 0-9.278-1.999c-.99-.196-1.99-.388-3-.577C57.166-24.183 29.66-26.669 0-26.669c-15.32 0-30.063.665-43.865 1.89-1.006.089-2.005.183-3 .278a420.253 420.253 0 0 0-11.162 1.213c-22.834 2.803-42.396 7.209-56.721 12.685a118.68 118.68 0 0 0-3 1.197c-14.325 5.944-22.654 13.039-22.654 20.659 0 5.49 4.324 10.706 12.093 15.416C-121.541 11.879-66.629.348.112.348c66.583 0 121.388 11.475 128.367 26.215 7.662-4.683 11.923-9.861 11.923-15.31 0-4.863-3.393-9.513-9.569-13.786z" transform="translate(425.5 786.338)" display="block"/><g display="block"><path fill="#ADF2F2" d="M506.832 791.224a1.5 1.5 0 0 0 1.5-1.5v-22.753c-.99-.196-1.99-.388-3-.577v23.33a1.5 1.5 0 0 0 1.5 1.5zM368.972 781.945a1.5 1.5 0 0 0 1.5-1.5v-17.752c-1.006.116-2.006.234-3 .356v17.396a1.5 1.5 0 0 0 1.5 1.5zM309.251 798.689a1.5 1.5 0 0 0 1.5-1.5v-21.454c-1.028.393-2.026.792-3 1.196v20.258a1.5 1.5 0 0 0 1.5 1.5zM380.134 774.689a1.5 1.5 0 0 0 1.5-1.5v-11.63c-1.005.089-2.005.181-3 .276v11.354a1.5 1.5 0 0 0 1.5 1.5zM519.11 786.968a1.5 1.5 0 0 0 1.5-1.5v-15.77c-.988-.246-1.986-.489-3-.728v16.498a1.5 1.5 0 0 0 1.5 1.5zM554.832 804.27a1.5 1.5 0 0 0 1.5-1.5v-18.966a50.888 50.888 0 0 0-3-1.916v20.882a1.5 1.5 0 0 0 1.5 1.5z"/></g></g><path stroke="#0097A7" stroke-width="3" d="M465 299l-9 498M770 596L464.667 304.466" fill="none" display="block"/><path stroke-linecap="round" stroke="#F7CB4D" stroke-width="15" d="M899.995 692.507l-184.91-166.992-248.07-224.03" fill="none" display="block"/><path fill="#F09300" d="M788.753 565.32c13.635 0 24.706 11.155 24.706 24.893 0 13.738-11.07 24.892-24.706 24.892s-24.707-11.154-24.707-24.892 11.07-24.893 24.707-24.893z" display="block"/><g display="block"><path fill="#8BE5EE" d="M747.293 546.062c-.001-.007-.004-.014-.006-.02a29.373 29.373 0 0 0-.275-1.208c-.014-.057-.03-.111-.044-.169-.09-.35-.183-.692-.282-1.023l-.027-.08c-.11-.36-.227-.711-.35-1.05 0-.002 0-.003-.002-.004a18.7 18.7 0 0 0-.413-1.037c-.742-1.707-1.688-3.113-2.916-4.235a10.528 10.528 0 0 0-.928-.75 11.643 11.643 0 0 0-1.277-.815l-.004-.001c-.364-.198-.75-.376-1.15-.544a15.65 15.65 0 0 0-1.581-.574c-2.019-.605-4.233.023-6.211 1.045-3.297 1.702-5.942 4.498-5.942 4.498.11-2.364-.013-5.897-1.19-8.824-.131-.326-.277-.643-.435-.951-.948-1.847-2.405-3.338-4.615-3.944a4.527 4.527 0 0 0-.81-.145c-1.326-.11-2.547.428-3.628 1.46a8.327 8.327 0 0 0-.632.677 11.71 11.71 0 0 0-1.156 1.682c-.18.314-.355.644-.522.989-1.006 2.07-1.77 4.677-2.236 7.554-.466 2.875-.53 7.114-.498 10.273a138.05 138.05 0 0 0 .076 3.357l.018.488.017.414 33.694 17.057c1.829-5.51 3.225-12.359 3.567-17.81.032-.495.055-.979.068-1.45.054-1.88-.04-3.545-.31-4.86z"/><path fill="#8BE5EE" d="M747.293 546.062c-.001-.007-.004-.014-.006-.02a29.373 29.373 0 0 0-.275-1.208c-.014-.057-.03-.111-.044-.169-.09-.35-.183-.692-.282-1.023l-.027-.08c-.11-.36-.227-.711-.35-1.05 0-.002 0-.003-.002-.004a18.7 18.7 0 0 0-.413-1.037l-10.528 8.565a2.554 2.554 0 0 1-1.66.574 2.564 2.564 0 0 1-1.574-4.551l10.846-8.823a10.528 10.528 0 0 0-.928-.75 11.643 11.643 0 0 0-1.277-.815l-.004-.001c-.364-.198-.75-.376-1.15-.544a15.65 15.65 0 0 0-1.581-.574c-2.019-.605-4.233.023-6.211 1.045-3.297 1.702-5.942 4.498-5.942 4.498.11-2.364-.013-5.897-1.19-8.824-.131-.326-.277-.643-.435-.951-.948-1.847-2.405-3.338-4.615-3.944a4.527 4.527 0 0 0-.81-.145c-1.326-.11-2.547.428-3.628 1.46a8.327 8.327 0 0 0-.632.677 11.71 11.71 0 0 0-1.156 1.682c-.18.314-.355.644-.522.989-1.006 2.07-1.77 4.677-2.236 7.554-.466 2.875-.53 7.114-.498 10.273a138.05 138.05 0 0 0 .076 3.357l.018.488.017.414 33.694 17.057c1.829-5.51 3.225-12.359 3.567-17.81.032-.495.055-.979.068-1.45.054-1.88-.04-3.545-.31-4.86z"/><path fill="#0097A7" d="M731.761 549.665c.497.61 1.215.933 1.945.946a2.554 2.554 0 0 0 1.661-.574l10.528-8.566c-.742-1.707-1.69-3.113-2.917-4.236l-10.846 8.824a2.564 2.564 0 0 0-.37 3.606z"/><path fill="#8BE5EE" d="M747.292 546.067c0-.007-.003-.014-.005-.02a29.373 29.373 0 0 0-.275-1.208c-.014-.058-.03-.111-.044-.17-.09-.348-.183-.692-.282-1.022l-.027-.08c-.11-.36-.227-.711-.35-1.05 0-.002 0-.003-.002-.005-.13-.357-.267-.702-.413-1.036-.743-1.707-1.689-3.114-2.916-4.236a10.705 10.705 0 0 0-.928-.749 11.679 11.679 0 0 0-1.279-.815l-.002-.001c-.365-.199-.75-.376-1.15-.544a15.65 15.65 0 0 0-1.581-.574c-2.019-.605-4.233.023-6.211 1.045-3.297 1.702-5.942 4.498-5.942 4.498.11-2.364-.013-5.897-1.19-8.824a11.344 11.344 0 0 0-.435-.951c-.948-1.847-2.405-3.338-4.615-3.944a4.527 4.527 0 0 0-.81-.145c-1.326-.11-2.547.427-3.628 1.46a8.327 8.327 0 0 0-.632.677 11.71 11.71 0 0 0-1.156 1.682c-.18.313-.355.644-.523.989-1.004 2.07-1.768 4.676-2.235 7.554-.466 2.874-.532 7.113-.498 10.272a137.774 137.774 0 0 0 .076 3.358l.018.487.017.415 33.694 17.057c1.828-5.51 3.225-12.359 3.567-17.81.032-.495.054-.979.068-1.45.054-1.88-.04-3.545-.31-4.86z"/><path fill="#8BE5EE" d="M747.292 546.067c0-.007-.003-.014-.005-.02a29.373 29.373 0 0 0-.275-1.208c-.014-.058-.03-.111-.044-.17-.09-.348-.183-.692-.282-1.022l-.027-.08c-.11-.36-.227-.711-.35-1.05 0-.002 0-.003-.002-.005-.13-.357-.267-.702-.413-1.036l-10.528 8.565a2.554 2.554 0 0 1-1.66.574 2.564 2.564 0 0 1-1.574-4.551l10.846-8.824a10.705 10.705 0 0 0-.928-.749 11.679 11.679 0 0 0-1.279-.815l-.002-.001c-.365-.199-.75-.376-1.15-.544a15.65 15.65 0 0 0-1.581-.574c-2.019-.605-4.233.023-6.211 1.045-3.297 1.702-5.942 4.498-5.942 4.498v-.001c.11-2.363-.013-5.896-1.19-8.823a11.344 11.344 0 0 0-.435-.951c-.948-1.847-2.405-3.338-4.615-3.944a4.527 4.527 0 0 0-.81-.145c-1.326-.11-2.547.427-3.628 1.46a8.327 8.327 0 0 0-.632.677 11.71 11.71 0 0 0-1.156 1.682c-.18.313-.355.644-.523.989-1.004 2.07-1.768 4.676-2.235 7.554-.466 2.874-.532 7.113-.498 10.272a137.774 137.774 0 0 0 .076 3.358l.018.487.017.415 33.694 17.057c1.828-5.51 3.225-12.359 3.567-17.81.032-.495.054-.979.068-1.45.054-1.88-.04-3.545-.31-4.86z"/><path fill="#0097A7" d="M731.761 549.67c.497.61 1.215.933 1.945.946a2.554 2.554 0 0 0 1.661-.574l10.528-8.566c-.742-1.707-1.69-3.114-2.917-4.236l-10.846 8.824a2.564 2.564 0 0 0-.37 3.606z"/><path fill="#26C6DA" d="M710.27 553.168s-6.254 14.324-6.221 28.083c.033 13.813 18.378 29.124 34.828 16.546 5.17-3.954 4.283-23.903 4.283-23.903l.444-4.085-33.334-16.64z"/><path fill="#47DAEA" d="M714.04 584.597a2 2 0 0 1-1.958-2.193l1.702-17.555a2 2 0 1 1 3.983.387l-1.703 17.554a2 2 0 0 1-2.024 1.807zM725.57 595.684a2 2 0 0 1-1.95-2.268l1.924-14.201a2.005 2.005 0 0 1 2.248-1.714 2 2 0 0 1 1.715 2.25l-1.924 14.202a2 2 0 0 1-2.014 1.73z"/></g><path fill="#ADF2F2" d="M1064.127 849.327H945.563a1.5 1.5 0 1 1 0-3h118.564a1.5 1.5 0 1 1 0 3z" display="block"/><path fill="#0097A7" d="M1043.488 733.18c1.462-1.946 2.028-3.191 2.028-3.191h-137.8l29.62 119.127h80.491l27.689-119.127s-.566 1.245-2.028 3.191z" display="block"/><g display="block"><path fill="#0097A7" d="M1031.335 793.948c.268-.396.543-.783.799-1.192a1.514 1.514 0 1 1 2.61 1.534c7.115-11.407 9.264-26.836 6.107-44.226l-1.926 8.284c1.265 14.079-1.341 26.39-7.59 35.6zM1030.32 795.372l-.004.014c.165-.221.337-.434.498-.66-.158.222-.332.429-.494.646zM1033.805 795.711c-.179.263-.349.536-.532.793.184-.258.353-.53.532-.793z"/><path fill="#00ACC1" d="M917.65 746.452a1.517 1.517 0 0 1-.921 1.938l-3.342 1.187c10.026 17.062 23.655 31.825 38.375 42.515h79.319l-.765 3.295v-.001l.002-.014 8.606-37.023 1.926-8.284 4.666-20.076s-11.833 26.025-66.976 26.025-70.824-26.025-70.824-26.025l4.199 16.891 3.797-1.349a1.516 1.516 0 0 1 1.938.921zM914.428 756.982l8.73 35.11h23.608c-12.125-9.38-23.357-21.406-32.338-35.11zM1017.828 849.115l11.02-47.416-11.02 47.416z"/><path fill="#4DD0E1" d="M999.307 813.223l-.347-.001c-16.649-.111-35.282-8.047-52.193-21.13h-23.609l14.178 57.024h80.492l11.022-47.417c-7.538 7.484-17.733 11.524-29.543 11.524z"/><path fill="#4DD0E1" d="M1030.316 795.387l.766-3.294h-79.32c15.499 11.255 32.21 17.995 47.219 18.095.108-.004.216.001.323.001 12.994 0 23.872-5.231 31.012-14.802z"/><path fill="#0097A7" d="M914.428 756.983c8.981 13.704 20.214 25.729 32.339 35.109 16.911 13.083 35.544 21.019 52.193 21.13a1.517 1.517 0 1 1 .01-3.034h.011c-15.009-.1-31.72-6.84-47.219-18.096-14.72-10.69-28.348-25.453-38.374-42.514l3.341-1.188a1.517 1.517 0 0 0-1.017-2.859l-3.796 1.349-2.969 1.056.897 1.574a141.167 141.167 0 0 0 4.584 7.473z"/><path fill="#0097A7" d="M1034.225 792.272a1.519 1.519 0 0 0-2.091.483c-.256.41-.531.798-.799 1.194-.175.258-.341.526-.521.778-.161.226-.333.438-.498.658v.001c-7.139 9.571-18.017 14.802-31.011 14.802-.108 0-.215-.005-.324-.001h-.01a1.517 1.517 0 1 0-.011 3.034l.348.002c11.809 0 22.004-4.04 29.541-11.524a40.137 40.137 0 0 0 4.425-5.194c.183-.257.352-.53.531-.793.303-.447.613-.887.902-1.349.015-.024.023-.049.037-.074a1.514 1.514 0 0 0-.519-2.017z"/></g><g display="block"><path fill="#47DAEA" d="M945.825 626.542l-.022-.014c13.784-18.968 6.357-31.335-3.393-36.425-8.342-4.354-20.574 1.03-28.534 6.945-.006-.007-.009-.015-.014-.022a1.5 1.5 0 0 0-2.108-.244c-14.287 11.325-28.441 16.468-44.546 16.187-26.086-.455-48.569-11.04-59.277-21.329a1.498 1.498 0 1 0-2.424 1.65l-.005.008c-.305-1.31-1.64-6.063-6.03-12.016-4.726-6.41-13.834-4.724-12.898.996.307 1.871 1.795 3.79 2.917 5.01-2.58-2.415-8.614-7.332-14.396-6.736-.962.099-1.917.343-2.848.785-.332.157-.65.328-.957.507a12.614 12.614 0 0 0-3.594 3.112c-1.109 1.4-1.924 3.012-2.48 4.748-1.872 5.855-.814 13.093 1.755 18.178 4.996 9.895 12.07 14.802 14.083 16.055a1.498 1.498 0 0 0-.742 2.66c4.322 3.435 9.122 6.606 14.204 9.964l.942.623c12.037 7.958 44.395 19.989 75.622 20.534 33.14.578 60.487-10.02 75.028-29.073.503-.659.377-1.6-.283-2.103z"/><path fill="#8BE5EE" d="M805.508 593.292l-.006.006v.001l.006-.007zM782.352 623.352l-.533.693.017.007 1.894-2.461-1.378 1.76z"/><path fill="#26C6DA" d="M913.619 599.133c-14.862 11.78-29.626 17.129-46.462 16.835-28.742-.502-50.988-12.253-61.305-22.164a1.477 1.477 0 0 1-.344-.513l-.005.007c.054.234.08.37.08.37l-21.853 27.923-1.893 2.461c.119.051.234.112.34.197 4.22 3.351 8.966 6.487 13.993 9.809l.944.622c12.206 8.072 44.72 19.526 74.018 20.037 32.177.562 58.636-9.605 72.592-27.892a1.498 1.498 0 0 1 2.08-.297c13.783-18.968 6.357-31.335-3.393-36.425-8.342-4.354-20.574 1.03-28.535 6.944a1.5 1.5 0 0 1-.257 2.086zM805.275 610.34a2 2 0 0 1 2.654-.978l16.774 7.746a2 2 0 1 1-1.675 3.631l-16.777-7.746a2 2 0 0 1-.976-2.653zm29.482 32.706a2 2 0 0 1-2.583 1.15l-20.125-7.733a1.998 1.998 0 0 1-1.15-2.583 1.998 1.998 0 0 1 2.585-1.15l20.124 7.733a1.998 1.998 0 0 1 1.15 2.583zm29.31-7.704a2.24 2.24 0 0 1-.14-.008l-21.48-1.867a1.999 1.999 0 1 1 .348-3.984l21.478 1.867a2 2 0 0 1-.206 3.992zm37.968 8.222L880.7 646.67a2 2 0 0 1-.578-3.958l21.335-3.107a2 2 0 1 1 .577 3.958zm3.158-23.759l-20.427 6.895a2 2 0 0 1-1.28-3.79l20.428-6.894a2 2 0 1 1 1.279 3.79zm12.002 5.513l17.166-13.045a2 2 0 1 1 2.418 3.184l-17.164 13.046a1.99 1.99 0 0 1-1.244.407 2 2 0 0 1-1.175-3.592z"/><path fill="#8BE5EE" d="M781.812 624.042l.539-.69 1.379-1.76 21.853-27.922s-.027-.137-.082-.37c-.305-1.31-1.64-6.065-6.03-12.018-4.726-6.408-13.834-4.723-12.898.997.307 1.871 1.796 3.79 2.916 5.01-2.579-2.415-8.613-7.333-14.395-6.737l4.802 10.701a2.002 2.002 0 0 1-1.86 2.821 2 2 0 0 1-1.79-1.181l-4.957-11.049a12.614 12.614 0 0 0-3.594 3.113l5.055 13.354a2 2 0 1 1-3.742 1.416l-3.791-10.023c-1.873 5.854-.815 13.094 1.753 18.18 4.996 9.893 12.07 14.8 14.084 16.053.254-.032.515.004.758.105z"/><path fill="#0097A7" d="M805.852 593.805c10.317 9.91 32.563 21.662 61.305 22.164 16.836.294 31.599-5.055 46.462-16.835a1.5 1.5 0 0 0 .257-2.086l-.013-.022a1.503 1.503 0 0 0-2.109-.244c-14.286 11.326-28.441 16.468-44.545 16.187-26.086-.455-48.569-11.04-59.278-21.328a1.498 1.498 0 0 0-2.424 1.65v.001c.078.188.19.364.345.513zM871.08 657.717c33.14.578 60.488-10.017 75.029-29.072a1.5 1.5 0 0 0-.284-2.103l-.022-.013a1.498 1.498 0 0 0-2.079.297c-13.956 18.287-40.415 28.453-72.592 27.891-29.297-.511-61.812-11.964-74.018-20.036l-.944-.623c-5.027-3.32-9.773-6.457-13.993-9.808a1.443 1.443 0 0 0-.34-.198l-.018-.006-.007-.004a1.49 1.49 0 0 0-1.741.45 1.5 1.5 0 0 0 .241 2.107c4.322 3.433 9.122 6.604 14.204 9.963l.942.622c12.037 7.958 44.396 19.988 75.622 20.533zM778.038 594.073a2.001 2.001 0 0 0 1.86-2.819l-4.803-10.702c-.962.099-1.917.343-2.848.785-.332.157-.65.328-.957.507l4.957 11.048a2.001 2.001 0 0 0 1.791 1.181zM770.846 601.018a1.999 1.999 0 0 0 1.904-2.708l-5.054-13.354c-1.109 1.4-1.924 3.012-2.48 4.748l3.794 10.022a1.998 1.998 0 0 0 1.836 1.292z"/><path fill="#47DAEA" d="M823.83 620.924a2 2 0 0 0 .874-3.816l-16.776-7.746a2 2 0 0 0-2.653.978 2 2 0 0 0 .976 2.654l16.776 7.745c.26.12.533.18.803.185zM833.608 640.463l-20.125-7.732a1.997 1.997 0 0 0-2.583 1.149 2 2 0 0 0 1.149 2.584l20.125 7.733a2.001 2.001 0 0 0 1.434-3.734zM864.274 631.35l-21.48-1.866a2.007 2.007 0 0 0-2.166 1.817 2 2 0 0 0 1.82 2.167l21.478 1.867a2 2 0 0 0 .348-3.986zM903.913 616.016l-20.428 6.895a2 2 0 0 0 1.28 3.79l20.428-6.894a2 2 0 0 0-1.28-3.79zM901.457 639.606l-21.334 3.107a2 2 0 0 0 .577 3.959l21.335-3.108a1.999 1.999 0 1 0-.578-3.958zM918.37 628.91c.435.007.873-.124 1.244-.407l17.165-13.045a2.002 2.002 0 0 0 .383-2.804 2.001 2.001 0 0 0-2.802-.38l-17.165 13.045a1.999 1.999 0 0 0 1.176 3.59z"/></g><g display="block"><path fill="#00ACC1" d="M858.125 356.747c2.052-5.504 5.065-11.352 6.611-15.194.711-1.767-1.166-3.455-2.845-2.558-5.006 2.675-12.844 7.663-18.652 15.039a38.381 38.381 0 0 0-4.086 6.37c-.226.445-.46.885-.667 1.344-2.064 4.554-3.185 8.767-3.728 12.486a39.944 39.944 0 0 0-.41 7.122c.094 2.877.496 5.175.87 6.727a6.264 6.264 0 0 0 2.677 3.813c2.262 1.46 5.951 4.205 11.707 2.96 5.441-1.177 7.94-3.828 10.056-6.494 1.352-1.702 2.02-4.149.94-6.035-.888-1.555-1.727-2.859-2.444-4.225-.981-1.874-1.73-3.867-2.052-6.786-.187-1.694-.23-3.7-.09-6.18.03-.518.1-1.065.19-1.624.328-2.064 1.034-4.38 1.923-6.765z"/><path fill="#00ACC1" d="M864.736 341.553c.711-1.767-1.166-3.456-2.845-2.56-5.007 2.676-12.844 7.664-18.652 15.04l14.885 2.714c2.052-5.504 5.066-11.352 6.612-15.194zM856.013 365.135c.03-.519.098-1.064.188-1.624l-17.048-3.108c-.226.445-.459.886-.667 1.345-2.064 4.553-3.185 8.766-3.73 12.485l21.346-2.917c-.187-1.695-.228-3.702-.089-6.181zM858.154 378.1l-23.808 3.255c.095 2.877.497 5.175.872 6.727a6.264 6.264 0 0 0 2.678 3.813c2.262 1.46 5.95 4.205 11.706 2.96 5.441-1.177 7.94-3.829 10.055-6.494 1.352-1.702 2.02-4.149.942-6.035-.89-1.555-1.728-2.859-2.445-4.225z"/><path fill="#0097A7" d="M858.125 356.746l-14.887-2.714a38.382 38.382 0 0 0-4.086 6.37l17.05 3.11c.328-2.065 1.034-4.38 1.923-6.766zM856.102 371.316l-21.345 2.918a39.85 39.85 0 0 0-.41 7.122l23.806-3.254c-.981-1.874-1.73-3.867-2.051-6.786z"/><path fill="#26C6DA" d="M943.235 351.135s-21.851 23.492-49.41 19.773c-34.434-4.647-62.74-8.946-93.359 18.573-38.125 34.269-40.06 82.616-30.958 107.923 11.152 31.003 34.846 57.245 76.982 76.352 40.052 18.162 89.996 26.965 124.423 4.516 30.793-20.08 61.409-78.884 43.22-124.589-12.72-31.967-51.07-43.473-62.856-61.196-12.24-18.405-8.042-41.352-8.042-41.352z"/><path fill="#00ACC1" d="M1016.314 408.857c-.365-1.87-2.86-2.257-3.78-.59-2.004 3.624-4.637 9.653-7.61 14.72-1.287 2.195-2.639 4.204-4.031 5.762-.377.422-.757.821-1.14 1.171-1.834 1.675-3.417 2.908-4.85 3.834-2.466 1.593-4.485 2.27-6.557 2.692-1.512.307-3.053.48-4.82.772-2.143.354-3.619 2.418-4.086 4.54-.732 3.323-1.21 6.935 1.313 11.898 2.669 5.25 7.126 6.377 9.687 7.21a6.268 6.268 0 0 0 4.647-.332c1.44-.69 3.475-1.828 5.766-3.57a39.994 39.994 0 0 0 5.264-4.816c2.54-2.77 5.1-6.299 7.329-10.774.224-.45.418-.91.622-1.367a38.294 38.294 0 0 0 2.36-7.19c2.052-9.162.972-18.388-.114-23.96z"/><path fill="#00ACC1" d="M1016.314 408.857c-.365-1.87-2.86-2.257-3.782-.59-2.003 3.624-4.635 9.653-7.608 14.72l11.503 9.83c2.052-9.162.973-18.388-.113-23.96zM983.526 437.218c-2.144.355-3.62 2.417-4.087 4.54-.732 3.323-1.21 6.936 1.313 11.899 2.669 5.249 7.127 6.376 9.687 7.209a6.262 6.262 0 0 0 4.647-.332c1.44-.689 3.476-1.828 5.767-3.57l-12.507-20.518c-1.513.307-3.054.48-4.82.772zM1000.893 428.749c-.377.422-.757.822-1.14 1.171-1.834 1.675-3.418 2.91-4.85 3.835l11.214 18.395c2.54-2.77 5.1-6.3 7.329-10.776.224-.45.418-.909.622-1.365l-13.175-11.26z"/><path fill="#0097A7" d="M1016.429 432.818l-11.505-9.831c-1.288 2.196-2.64 4.205-4.033 5.763l13.176 11.258a38.394 38.394 0 0 0 2.362-7.19zM988.346 436.446l12.507 20.518a39.979 39.979 0 0 0 5.263-4.815l-11.214-18.395c-2.465 1.594-4.484 2.27-6.556 2.692z"/><path fill="#47DAEA" d="M999.21 504.793a2 2 0 0 1-1.819-2.46l5.231-21.88a1.993 1.993 0 0 1 2.41-1.48 2.001 2.001 0 0 1 1.48 2.412l-5.231 21.877a1.999 1.999 0 0 1-2.072 1.53zM975.495 554.233a1.999 1.999 0 0 1-1.534-3.105l13.57-20.366a2 2 0 1 1 3.33 2.218l-13.572 20.367a2.001 2.001 0 0 1-1.794.886zM932.597 582.509a1.999 1.999 0 0 1-1.12-3.558l14.21-11.338a2.003 2.003 0 0 1 2.812.316 2.002 2.002 0 0 1-.317 2.812l-14.21 11.336a1.993 1.993 0 0 1-1.375.432zM835.032 385.61a2 2 0 0 1-.59-3.864l16.698-6.41a2 2 0 1 1 1.433 3.735l-16.697 6.41a2 2 0 0 1-.844.13zM793.833 419.8a2.002 2.002 0 0 1-1.523-3.125l12.268-17.957a2.001 2.001 0 0 1 3.304 2.258l-12.268 17.957c-.413.604-1.1.911-1.78.867zM962.666 475.64a2 2 0 0 1-1.827-2.428l4.518-20.456a2 2 0 0 1 3.906.862l-4.519 20.457a2 2 0 0 1-2.078 1.565zM966.55 516.74a2 2 0 0 1-1.655-2.9l9.195-18.154a1.997 1.997 0 0 1 2.687-.88c.985.499 1.38 1.701.881 2.687l-9.194 18.154a2.001 2.001 0 0 1-1.913 1.093zM931.416 510.656a2.002 2.002 0 0 1-1.619-2.97l10.908-19.542a1.999 1.999 0 0 1 2.72-.772 2.002 2.002 0 0 1 .774 2.721l-10.908 19.542a1.997 1.997 0 0 1-1.875 1.02zM932.667 555.797a2.001 2.001 0 0 1-1.26-3.434l13.18-12.725a2 2 0 0 1 2.777 2.878l-13.179 12.725c-.42.407-.975.591-1.518.556zM779.042 467.173a2 2 0 0 1-1.766-2.64l7.27-21.36a1.997 1.997 0 0 1 2.537-1.249 1.998 1.998 0 0 1 1.25 2.537l-7.27 21.36a2.002 2.002 0 0 1-2.021 1.352zM810.575 493.576a1.999 1.999 0 0 1-1.84-2.372l3.706-19.38a2 2 0 0 1 3.929.752l-3.706 19.38a2 2 0 0 1-2.089 1.62zM884.91 527.927a2 2 0 0 1-1.264-3.431l15.452-14.997a1.999 1.999 0 1 1 2.786 2.87l-15.452 14.997a1.997 1.997 0 0 1-1.522.561zM842.646 519.294a2 2 0 0 1-1.66-2.89l8.179-16.36a2.001 2.001 0 0 1 3.579 1.788l-8.18 16.36a2 2 0 0 1-1.918 1.102zM810.687 540.049a2 2 0 0 1-1.854-2.279l2.423-16.965a2 2 0 0 1 3.96.565l-2.423 16.966a2 2 0 0 1-2.106 1.713zM786.273 505.756a2 2 0 0 1-1.86-2.238l2.311-18.937a2 2 0 0 1 3.971.484L788.385 504a2 2 0 0 1-2.112 1.755zM884.885 564.84a2 2 0 0 1-1.239-3.456l14.238-13.33a2.002 2.002 0 0 1 2.736 2.919l-14.24 13.331c-.42.393-.964.57-1.495.536zM952.076 433.017a2 2 0 0 1-1.734-1.264l-6.666-16.966a1.999 1.999 0 1 1 3.722-1.462l6.667 16.965a2 2 0 0 1-1.989 2.727zM843.708 555.802a2 2 0 0 1-1.367-3.324l12.119-13.634a2.001 2.001 0 0 1 2.99 2.657l-12.119 13.634a1.995 1.995 0 0 1-1.623.667z"/><path fill="#0097A7" d="M908.46 593.194c-4.668-.3-15.63-1.272-25.7-4.148a1.5 1.5 0 1 1 .823-2.884c12.622 3.604 27.195 4.153 27.337 4.159 6.082.463 14.32-.208 22.748-1.831a1.5 1.5 0 1 1 .57 2.945c-8.682 1.67-17.228 2.343-23.484 1.881a84.98 84.98 0 0 1-2.295-.122zM806.79 552.135a1.496 1.496 0 0 1-.855-.337 139.871 139.871 0 0 1-6.443-5.634 1.499 1.499 0 1 1 2.043-2.195c2.02 1.88 4.14 3.734 6.303 5.51a1.498 1.498 0 1 1-1.048 2.655z"/></g><path fill="#8BE5EE" d="M938.471 466.65c-9.768 23.074-45.215 30.126-79.175 15.75-33.959-14.375-53.569-44.734-43.802-67.808 9.768-23.075 45.216-30.126 79.175-15.75 33.959 14.375 53.57 44.734 43.802 67.808z" display="block"/><g display="block"><path fill="#FFF" d="M834.42 438.549s5.193-.365 7.638-2.255c1.527-1.181 3.762-3.151 2.118-8.139-1.85-5.612-5.177-6.096-8.593-5.955-2.166.09-5.182 1.482-5.182 1.482s2.349 11.506 4.02 14.867z"/><path fill="#0097A7" d="M873.366 464.617c-8.628-.554-18.449-2.982-27.742-9.353-11.685-8.01-15.419-17.959-16.494-24.894-1.168-7.537.461-13.176.531-13.413a2.502 2.502 0 0 1 3.106-1.689 2.501 2.501 0 0 1 1.69 3.1c-.227.79-5.37 19.498 13.994 32.772 21.943 15.042 48.14 5.614 48.403 5.516a2.5 2.5 0 0 1 1.744 4.687c-.718.267-11.459 4.16-25.232 3.274z"/></g><path fill="#0097A7" d="M895.928 430.937a2.497 2.497 0 0 1-2.113-1.453c-.048-.102-4.949-10.53-14.393-15.807-9.463-5.289-19.143-4.525-19.239-4.515a2.51 2.51 0 0 1-2.709-2.27 2.498 2.498 0 0 1 2.262-2.71c.455-.042 11.264-.94 22.125 5.13 10.9 6.092 16.274 17.6 16.497 18.086a2.5 2.5 0 0 1-2.43 3.539zM859.558 427.183a7.936 7.936 0 0 1-2.739-.665c-1.618-.724-2.815-2.014-3.465-3.734-.836-2.216-.673-4.995.44-7.432a2.5 2.5 0 0 1 4.548 2.076c-.545 1.195-.67 2.637-.31 3.59.232.61.584.825.828.935 1.785.8 4.365-.439 5.067-1.977a2.499 2.499 0 1 1 4.548 2.075c-1.52 3.333-5.323 5.363-8.917 5.132zM878.45 436.503a7.694 7.694 0 0 1-3.658-1.213c-3.456-2.195-4.16-6.372-1.793-10.64a2.5 2.5 0 1 1 4.373 2.425c-.602 1.086-1.39 3.048.102 3.996.692.439 1.425.552 2.243.345 1.238-.315 2.234-1.252 2.672-2.04a2.5 2.5 0 1 1 4.37 2.427c-1.188 2.14-3.414 3.85-5.81 4.46a8.062 8.062 0 0 1-2.499.24z" display="block"/><g display="block"><path fill="#F4F4F4" d="M459.874 791.55l1.559-6.41-11.894-.208 1.334 6.461c-9.584 1.898-16.89 10.26-17.067 20.426-.057 3.285 1.322 3.332 1.884 3.944l38.209.667c1.229-.28 2.261-.586 2.319-3.871.177-10.167-6.833-18.777-16.344-21.009z"/><path fill="#FF5252" d="M459.874 791.55l1.559-6.411-11.894-.208 1.334 6.461c-9.584 1.898-16.89 10.26-17.067 20.427l42.412.74c.177-10.167-6.833-18.778-16.344-21.01z"/><path fill="#FF5252" d="M433.806 811.818c-.057 3.285.822 3.332 2.372 4.07l36.758.641 1.45.026c1.618-.905 1.774-.712 1.832-3.997l-42.412-.74z"/></g><path fill="#8BE5EE" d="M478.878 805.729c-25.127 11.521-48 .122-48 .122l-4.725 30.002 56.495-3.117-3.77-27.007z" display="block"/></g><g clip-path="url(#i)" transform="rotate(-.745 705.751 1340.416)" display="block"><path stroke-linecap="round" stroke="#0097A7" stroke-width="3" d="M434 803s1.25 10.5 28.25 11c26.514.491 27.5-10.25 27.5-10.25" fill="none" opacity=".3" display="block"/><path stroke-linecap="round" stroke="#0097A7" stroke-width="2.001" d="M-277.5 347.25s1.25 10.5 28.25 11c26.514.491 27.5-10.25 27.5-10.25" fill="none" transform="matrix(1.6923 0 0 1.70657 884.055 214.22)" opacity=".122" display="block"/></g></g></g></svg>